<svg xmlns="http://www.w3.org/2000/svg" width="71.38" height="71.38" viewBox="0 0 71.38 71.38"><defs><style>.a{fill:none;}.b{fill:#7ac943;}.c{fill:#fff;}</style></defs><rect class="a" width="71.38" height="71.38" transform="translate(0 0)"/><g transform="translate(5.752 5.033)"><ellipse class="b" cx="30.298" cy="30.657" rx="30.298" ry="30.657" transform="translate(0)"/><path class="c" d="M29.407,13.84a2.173,2.173,0,0,1-1.479-.591,15.007,15.007,0,0,0-3.557-2.463,2.164,2.164,0,0,1-1.038-2.05V4.9A22.554,22.554,0,0,0,17.5,4.36a23.064,23.064,0,0,0-5.833.545v3.83a2.21,2.21,0,0,1-1.062,2.04A15.314,15.314,0,0,0,7.066,13.24a2.216,2.216,0,0,1-2.982-.034L.618,9.74A2.059,2.059,0,0,1,0,8.247,2.109,2.109,0,0,1,.62,6.739a24.51,24.51,0,0,1,33.746-.013,2.142,2.142,0,0,1,.015,3.029L30.915,13.22A2.11,2.11,0,0,1,29.407,13.84ZM17.5,2.9a21.773,21.773,0,0,1,6.793.767.729.729,0,0,1,.5.691V8.735c0,.432.134.7.225.742a16.48,16.48,0,0,1,3.911,2.708.707.707,0,0,0,.957,0l3.465-3.465a.685.685,0,0,0,0-.952,23.054,23.054,0,0,0-31.713.015.658.658,0,0,0-.178.462.612.612,0,0,0,.177.448l3.481,3.481a.708.708,0,0,0,.941.013A16.87,16.87,0,0,1,9.963,9.467a.907.907,0,0,0,.245-.732V4.36a.73.73,0,0,1,.5-.694A22.466,22.466,0,0,1,17.5,2.9Z" transform="translate(37.344 47.973) rotate(-135)"/></g></svg>