<svg xmlns="http://www.w3.org/2000/svg" width="126" height="126" viewBox="0 0 126 126"><defs><style>.a{fill:none;}.b{fill:#e5e5e5;}.c{fill:#707070;}</style></defs><rect class="a" width="126" height="126"/><g transform="translate(7.099 7.099)"><circle class="b" cx="56" cy="56" r="56" transform="translate(-0.099 -0.099)"/><g transform="translate(44.578 37.487)"><g transform="translate(0 0)"><path class="c" d="M142.463,248.172a1.364,1.364,0,1,0-2.727,0,9.636,9.636,0,1,1-19.273,0,1.364,1.364,0,1,0-2.727,0,12.362,12.362,0,0,0,11,12.318v3.636h-4.955a1.364,1.364,0,1,0,0,2.727h12.636a1.364,1.364,0,1,0,0-2.727h-4.955V260.49A12.362,12.362,0,0,0,142.463,248.172Z" transform="translate(-117.736 -228.217)"/><path class="c" d="M179.087,64.946a7.6,7.6,0,0,0,7.591-7.591V44.991a7.591,7.591,0,1,0-15.182,0V57.309A7.643,7.643,0,0,0,179.087,64.946Z" transform="translate(-166.723 -37.4)"/></g><path class="b" d="M176.813,59.239c2.929,0,5.317-2.7,5.317-6.018v-9.8c0-3.315-2.388-6.018-5.317-6.018s-5.317,2.7-5.317,6.018v9.766C171.5,56.536,173.884,59.2,176.813,59.239Z" transform="translate(-164.397 -34.68)"/></g></g></svg>