<svg xmlns="http://www.w3.org/2000/svg" width="54.264" height="54.264" viewBox="0 0 54.264 54.264"><defs><style>.a{fill:none;}.b{fill:#fff;stroke:#1fad9c;stroke-width:1.5px;}.c{fill:#1fad9c;}.d{stroke:none;}</style></defs><rect class="a" width="54.264" height="54.264" transform="translate(0 0)"/><g transform="translate(4.373 3.826)"><g class="b" transform="translate(0)"><ellipse class="d" cx="23.032" cy="23.306" rx="23.032" ry="23.306"/><ellipse class="a" cx="23.032" cy="23.306" rx="22.282" ry="22.556"/></g><path class="c" d="M24.554,11.556a1.814,1.814,0,0,1-1.235-.493,12.53,12.53,0,0,0-2.97-2.057,1.807,1.807,0,0,1-.867-1.712v-3.2a18.832,18.832,0,0,0-4.871-.452A19.258,19.258,0,0,0,9.741,4.1v3.2A1.846,1.846,0,0,1,8.855,9,12.787,12.787,0,0,0,5.9,11.055a1.85,1.85,0,0,1-2.49-.028L.516,8.133A1.719,1.719,0,0,1,0,6.886,1.761,1.761,0,0,1,.518,5.627a20.465,20.465,0,0,1,28.177-.011,1.789,1.789,0,0,1,.012,2.529l-2.893,2.893A1.761,1.761,0,0,1,24.554,11.556ZM14.612,2.423a18.18,18.18,0,0,1,5.672.64.609.609,0,0,1,.416.577V7.294c0,.36.112.583.188.62a13.761,13.761,0,0,1,3.266,2.261.59.59,0,0,0,.8,0l2.893-2.893a.572.572,0,0,0,0-.8A19.25,19.25,0,0,0,1.366,6.5a.549.549,0,0,0-.149.386.511.511,0,0,0,.147.374l2.907,2.907a.591.591,0,0,0,.785.011A14.086,14.086,0,0,1,8.319,7.905a.757.757,0,0,0,.2-.611V3.641a.61.61,0,0,1,.421-.58A18.759,18.759,0,0,1,14.612,2.423Z" transform="translate(28.814 37.91) rotate(-135)"/></g></svg>