<svg xmlns="http://www.w3.org/2000/svg" width="126" height="126" viewBox="0 0 126 126"><defs><style>.a{fill:none;}.b{fill:#ff1d25;}.c{fill:#fff;}</style></defs><g transform="translate(0.45 0)"><rect class="a" width="126" height="126" transform="translate(-0.451 0)"/><g transform="translate(7.099 7.099)"><ellipse class="b" cx="55.5" cy="56" rx="55.5" ry="56" transform="translate(0.451 -0.099)"/><path class="c" d="M49.345,178A3.646,3.646,0,0,1,46.863,177a25.181,25.181,0,0,0-5.968-4.133,3.631,3.631,0,0,1-1.742-3.441V163a37.845,37.845,0,0,0-9.788-.908,38.7,38.7,0,0,0-9.788.915v6.426a3.709,3.709,0,0,1-1.781,3.423,25.7,25.7,0,0,0-5.939,4.136,3.719,3.719,0,0,1-5-.056l-5.814-5.817A3.455,3.455,0,0,1,0,168.611a3.54,3.54,0,0,1,1.04-2.53,41.127,41.127,0,0,1,56.624-.022,3.595,3.595,0,0,1,.024,5.082l-5.814,5.814A3.54,3.54,0,0,1,49.345,178Zm-19.98-18.353c3.815,0,7.838.1,11.4,1.287a1.224,1.224,0,0,1,.837,1.16v7.341c0,.724.225,1.172.377,1.246a27.653,27.653,0,0,1,6.563,4.544,1.186,1.186,0,0,0,1.605,0l5.814-5.814a1.15,1.15,0,0,0,0-1.6,38.684,38.684,0,0,0-53.213.025,1.1,1.1,0,0,0-.3.776,1.027,1.027,0,0,0,.3.751L8.584,175.2a1.188,1.188,0,0,0,1.578.022,28.308,28.308,0,0,1,6.556-4.566,1.522,1.522,0,0,0,.411-1.228V162.09a1.226,1.226,0,0,1,.847-1.165C21.629,159.743,25.77,159.643,29.364,159.643Z" transform="translate(27.581 -110.358)"/></g></g></svg>