<svg xmlns="http://www.w3.org/2000/svg" width="55.03" height="52.985" viewBox="0 0 55.03 52.985"><defs><style>.a{fill:none;}.b{fill:#1fad9c;}</style></defs><g transform="translate(-1767.931 -975.042)"><rect class="a" width="55.03" height="52.985" transform="translate(1767.931 975.042)"/><g transform="translate(1771.931 979.042)"><path class="b" d="M32.92,171.925a1.533,1.533,0,1,0,2.17,2.167l8.167-8.167a1.538,1.538,0,0,0,.115-.126l.022-.03c.022-.029.045-.058.065-.088s.029-.047.043-.071.022-.036.032-.055.031-.062.045-.094c.006-.013.012-.025.018-.038.016-.038.03-.077.043-.117l.007-.022a1.533,1.533,0,0,0-.38-1.54l-8.179-8.179a1.534,1.534,0,0,0-2.17,2.17l5.564,5.564H12.533a1.533,1.533,0,1,0,0,3.067H38.48Z" transform="translate(-11 -142.339)"/><path class="b" d="M68.464,22A22.376,22.376,0,0,0,47.53,36.264a1.533,1.533,0,1,0,2.855,1.12,19.426,19.426,0,1,1,0,14.215,1.533,1.533,0,1,0-2.855,1.12A22.493,22.493,0,1,0,68.464,22Z" transform="translate(-43.927 -22)"/></g></g></svg>