<svg xmlns="http://www.w3.org/2000/svg" xmlns:xlink="http://www.w3.org/1999/xlink" width="350" height="350" viewBox="0 0 350 350"><defs><style>.a,.b{fill:#fff;}.b,.c{stroke:#0755aa;stroke-width:4px;}.b{stroke-linecap:round;stroke-miterlimit:10;}.c,.e{fill:none;}.d{stroke:none;}.f{filter:url(#a);}</style><filter id="a" x="0" y="0" width="350" height="350" filterUnits="userSpaceOnUse"><feOffset dy="3" input="SourceAlpha"/><feGaussianBlur stdDeviation="3" result="b"/><feFlood flood-opacity="0.161"/><feComposite operator="in" in2="b"/><feComposite in="SourceGraphic"/></filter></defs><g transform="translate(-11 -73.024)"><g class="f" transform="matrix(1, 0, 0, 1, 11, 73.02)"><circle class="a" cx="166" cy="166" r="166" transform="translate(9 6)"/></g><g transform="translate(106.504 161.113)"><circle class="b" cx="41.683" cy="41.683" r="41.683" transform="translate(36.07)"/><g transform="translate(0 83.646)"><path class="b" d="M331.23,263.916a77.7,77.7,0,0,1,1.562,9.5,7.26,7.26,0,0,1-7.223,7.988H287.855" transform="translate(-177.324 -203.288)"/><path class="b" d="M221.176,279.433h-40.19a7.261,7.261,0,0,1-7.224-7.988,78.136,78.136,0,0,1,151.2-18.585" transform="translate(-173.724 -201.313)"/></g><g transform="translate(63.849 84.227)"><path class="b" d="M253.557,201.924l-13.9,50.893,13.9,16.265" transform="translate(-239.653 -201.913)"/><path class="b" d="M254.01,201.912l13.9,50.893-13.9,16.265" transform="translate(-240.106 -201.912)"/></g></g><g class="c" transform="translate(31 90.024)"><circle class="d" cx="155" cy="155" r="155"/><circle class="e" cx="155" cy="155" r="153"/></g></g></svg>