<svg xmlns="http://www.w3.org/2000/svg" width="42.082" height="41.596" viewBox="0 0 42.082 41.596"><defs><style>.a,.c{fill:none;}.b{fill:#ff1d25;stroke:#ff1d24;}.c{stroke:#ff1d25;stroke-linecap:round;stroke-width:2.5px;}</style></defs><g transform="translate(-956 -123.909)"><rect class="a" width="42.082" height="41.596" transform="translate(956 123.909)"/><g transform="translate(68 -754.091)"><g transform="translate(892 886.022)"><path class="b" d="M28.256,74.382l-3.927-3.06a3.028,3.028,0,0,0-3.755.014l-.873.688a1.663,1.663,0,0,1-2.208-.131l-7.022-7.036a1.68,1.68,0,0,1-.131-2.221l.688-.873a3.037,3.037,0,0,0,.014-3.755L7.989,54.073a3.035,3.035,0,0,0-4.264-.536,3.479,3.479,0,0,0-.289.254L.932,56.3c-1.4,1.4-3.411,5.866,7.916,17.214,7.379,7.4,11.884,8.954,14.36,8.954h0a3.8,3.8,0,0,0,2.82-1.018l2.51-2.51a3.051,3.051,0,0,0-.007-4.312,3.1,3.1,0,0,0-.275-.248ZM27.562,78l-2.51,2.51a2.476,2.476,0,0,1-1.85.612c-1.816,0-5.97-1.107-13.39-8.549C1.269,64.011.21,59,1.9,57.305l2.51-2.517A1.66,1.66,0,0,1,5.588,54.3h.1a1.661,1.661,0,0,1,1.21.64l3.054,3.934a1.673,1.673,0,0,1-.007,2.063l-.688.873a3.057,3.057,0,0,0,.234,4.044L16.517,72.9a3.033,3.033,0,0,0,4.037.234l.873-.688a1.663,1.663,0,0,1,2.056-.007L27.41,75.5a1.675,1.675,0,0,1,.289,2.352c-.048.055-.089.1-.138.151Z" transform="translate(0.165 -52.896)"/></g><g transform="translate(912.97 882)"><path class="c" d="M4998.585,1576.858l13.112-13.113" transform="translate(-4998.585 -1563.745)"/><path class="c" d="M5011.7,1576.858l-13.112-13.113" transform="translate(-4998.585 -1563.745)"/></g></g></g></svg>