<svg xmlns="http://www.w3.org/2000/svg" width="44.021" height="43.664" viewBox="0 0 44.021 43.664"><defs><style>.a{fill:none;}.b,.c{fill:#707070;}.b{stroke:#707070;}</style></defs><g transform="translate(-956 -269)"><rect class="a" width="44.021" height="43.664" transform="translate(956 269)"/><g transform="translate(960.165 276)"><path class="b" d="M28.947,74.9l-4.022-3.135a3.1,3.1,0,0,0-3.846.014l-.895.7a1.7,1.7,0,0,1-2.261-.134L10.73,65.147a1.721,1.721,0,0,1-.134-2.275l.7-.895a3.111,3.111,0,0,0,.014-3.846L8.187,54.1a3.108,3.108,0,0,0-4.368-.549,3.564,3.564,0,0,0-.3.261L.959,56.384c-1.43,1.43-3.494,6.009,8.108,17.632,7.559,7.58,12.173,9.172,14.709,9.172h0a3.888,3.888,0,0,0,2.888-1.043l2.571-2.571a3.125,3.125,0,0,0-.007-4.417,3.178,3.178,0,0,0-.282-.254Zm-.711,3.705L25.664,81.18a2.536,2.536,0,0,1-1.895.627c-1.86,0-6.115-1.134-13.716-8.756C1.3,64.281.219,59.145,1.952,57.412l2.571-2.578a1.7,1.7,0,0,1,1.2-.5h.106a1.7,1.7,0,0,1,1.24.655L10.2,59.019a1.714,1.714,0,0,1-.007,2.113l-.7.895a3.132,3.132,0,0,0,.239,4.142l7.192,7.213a3.106,3.106,0,0,0,4.135.24l.895-.7a1.7,1.7,0,0,1,2.106-.007l4.022,3.135a1.716,1.716,0,0,1,.3,2.409c-.049.056-.092.106-.141.155Z" transform="translate(0 -50.524)"/><path class="c" d="M301.089.707A1.127,1.127,0,0,0,300.039,0H288.664A1.168,1.168,0,0,0,287.5.97a1.142,1.142,0,0,0,1.129,1.312h8.659L285.533,14.026a1.146,1.146,0,0,0,.171,1.78,1.133,1.133,0,0,0,1.3-.046,1.392,1.392,0,0,0,.137-.125L298.9,3.89V12.5a1.168,1.168,0,0,0,.97,1.164,1.143,1.143,0,0,0,1.312-1.129V1.141A1.137,1.137,0,0,0,301.089.707Z" transform="translate(-265.323 -3)"/></g></g></svg>