<svg xmlns="http://www.w3.org/2000/svg" xmlns:xlink="http://www.w3.org/1999/xlink" width="70" height="70" viewBox="0 0 70 70"><defs><style>.a,.b{fill:#fff;}.b,.c{stroke:#0755aa;}.b{stroke-linecap:round;stroke-miterlimit:10;}.c,.e{fill:none;}.d{stroke:none;}.f{filter:url(#a);}</style><filter id="a" x="0" y="0" width="70" height="70" filterUnits="userSpaceOnUse"><feOffset dy="3" input="SourceAlpha"/><feGaussianBlur stdDeviation="3" result="b"/><feFlood flood-opacity="0.161"/><feComposite operator="in" in2="b"/><feComposite in="SourceGraphic"/></filter></defs><g transform="translate(-11.21 -73.024)"><g class="f" transform="matrix(1, 0, 0, 1, 11.21, 73.02)"><circle class="a" cx="26" cy="26" r="26" transform="translate(9 6)"/></g><g transform="translate(34.21 92.024)"><circle class="b" cx="6.429" cy="6.429" r="6.429" transform="translate(5.564)"/><g transform="translate(0 12.902)"><path class="b" d="M294.546,263.916a11.981,11.981,0,0,1,.241,1.466,1.12,1.12,0,0,1-1.114,1.232h-5.817" transform="translate(-270.806 -254.564)"/><path class="b" d="M181.043,213.363h-6.2a1.12,1.12,0,0,1-1.114-1.232,12.052,12.052,0,0,1,23.322-2.867" transform="translate(-173.724 -201.313)"/></g><g transform="translate(9.849 12.992)"><path class="b" d="M241.8,201.924l-2.145,7.85,2.145,2.509" transform="translate(-239.653 -201.923)"/><path class="b" d="M254.01,201.912l2.145,7.85-2.145,2.509" transform="translate(-251.865 -201.912)"/></g></g><g class="c" transform="translate(22.21 81.024)"><circle class="d" cx="24" cy="24" r="24"/><circle class="e" cx="24" cy="24" r="23.5"/></g></g></svg>