<svg xmlns="http://www.w3.org/2000/svg" width="126" height="126" viewBox="0 0 126 126"><defs><style>.a{fill:none;}.b{fill:#e5e5e5;}.c{fill:#707070;stroke:#707070;stroke-width:0.25px;}</style></defs><g transform="translate(-0.099)"><rect class="a" width="126" height="126" transform="translate(0.099)"/><g transform="translate(7.099 7.099)"><circle class="b" cx="56" cy="56" r="56" transform="translate(0 -0.099)"/></g><g transform="translate(41.017 48.887)"><path class="c" d="M65.77,109.6a.981.981,0,0,0-.97-.018l-10.612,5.794V111.9a4.9,4.9,0,0,0-4.9-4.9H24.9a4.9,4.9,0,0,0-4.9,4.9v19.345a4.9,4.9,0,0,0,4.9,4.9H49.289a4.9,4.9,0,0,0,4.9-4.9V127.83L64.8,133.625a.98.98,0,0,0,1.45-.86V110.442a.98.98,0,0,0-.48-.842ZM52.227,131.244a2.943,2.943,0,0,1-2.94,2.94H24.9a2.943,2.943,0,0,1-2.94-2.94V111.9a2.943,2.943,0,0,1,2.94-2.94H49.289a2.943,2.943,0,0,1,2.94,2.94Zm12.062-.131-10.1-5.516v-7.989l10.1-5.515Zm0,0" transform="translate(-20 -107)"/></g></g></svg>