<svg xmlns="http://www.w3.org/2000/svg" width="53" height="53" viewBox="0 0 53 53"><defs><style>.a{fill:none;}.b{fill:#fff;stroke-width:1.5px;}.b,.c{stroke:#1fad9c;}.c{fill:#1fad9c;stroke-width:0.25px;}.d{stroke:none;}</style></defs><g transform="translate(-0.266)"><g transform="translate(0.099)"><rect class="a" width="53" height="53" transform="translate(0.167)"/><g transform="translate(3.272 3.272)"><g class="b" transform="translate(-0.105 -0.272)"><circle class="d" cx="23.5" cy="23.5" r="23.5"/><circle class="a" cx="23.5" cy="23.5" r="22.75"/></g></g></g><g transform="translate(17.366 20.63)"><path class="c" d="M39.314,108.1a.414.414,0,0,0-.409-.007l-4.478,2.445v-1.467A2.07,2.07,0,0,0,32.359,107H22.067A2.07,2.07,0,0,0,20,109.067v8.163a2.07,2.07,0,0,0,2.067,2.067H32.359a2.07,2.07,0,0,0,2.067-2.067v-1.44l4.478,2.445a.413.413,0,0,0,.612-.363v-9.42a.413.413,0,0,0-.2-.356ZM33.6,117.231a1.242,1.242,0,0,1-1.24,1.24H22.067a1.242,1.242,0,0,1-1.24-1.24v-8.163a1.242,1.242,0,0,1,1.24-1.24H32.359a1.242,1.242,0,0,1,1.24,1.24Zm5.09-.055-4.263-2.327v-3.371l4.263-2.327Zm0,0" transform="translate(-20 -107)"/></g></g></svg>