<svg xmlns="http://www.w3.org/2000/svg" width="177" height="49" viewBox="0 0 177 49"><defs><style>.a{fill:none;}.b{fill:#fff;}.c,.d,.f{fill:#1fad9c;}.c{font-size:20px;}.c,.d{font-family:Quicksand-Medium, Quicksand;font-weight:500;letter-spacing:0.035em;}.d{font-size:10px;}.e,.f{stroke:none;}</style></defs><g transform="translate(-99 -389)"><rect class="a" width="177" height="49" transform="translate(99 389)"/><g class="b" transform="translate(103 393)"><path class="e" d="M 148.5 40.25 L 20.5 40.25 C 17.83343505859375 40.25 15.24704360961914 39.72791290283203 12.81265258789062 38.69826126098633 C 10.46091270446777 37.70356369018555 8.348695755004883 36.27941131591797 6.534652233123779 34.46537017822266 C 4.720586776733398 32.65132522583008 3.296434879302979 30.53908729553223 2.30173921585083 28.18737030029297 C 1.272086977958679 25.75297737121582 0.75 23.16656494140625 0.75 20.5 C 0.75 17.83343505859375 1.272086977958679 15.24702167510986 2.30173921585083 12.81263065338135 C 3.296434879302979 10.46091270446777 4.720586776733398 8.348673820495605 6.534652233123779 6.534630298614502 C 8.348695755004883 4.720586776733398 10.46091270446777 3.296434879302979 12.81265258789062 2.30173921585083 C 15.24704360961914 1.272086977958679 17.83343505859375 0.75 20.5 0.75 L 148.5 0.75 C 151.1665649414062 0.75 153.7529754638672 1.272086977958679 156.1873626708984 2.30173921585083 C 158.5390930175781 3.296434879302979 160.6513214111328 4.720586776733398 162.4653625488281 6.534630298614502 C 164.2794189453125 8.348673820495605 165.7035675048828 10.46091270446777 166.6982574462891 12.81263065338135 C 167.7279205322266 15.24702167510986 168.25 17.83343505859375 168.25 20.5 C 168.25 23.16656494140625 167.7279205322266 25.75297737121582 166.6982574462891 28.18737030029297 C 165.7035675048828 30.53908729553223 164.2794189453125 32.65132522583008 162.4653625488281 34.46537017822266 C 160.6513214111328 36.27941131591797 158.5390930175781 37.70356369018555 156.1873626708984 38.69826126098633 C 153.7529754638672 39.72791290283203 151.1665649414062 40.25 148.5 40.25 Z"/><path class="f" d="M 20.5 1.5 C 17.93435668945312 1.5 15.44624328613281 2.002159118652344 13.10479736328125 2.992500305175781 C 10.84248352050781 3.949386596679688 8.810379028320312 5.319568634033203 7.064971923828125 7.064975738525391 C 5.319564819335938 8.810386657714844 3.949386596679688 10.84247779846191 2.99249267578125 13.10479545593262 C 2.002151489257812 15.44625091552734 1.5 17.93436431884766 1.5 20.5 C 1.5 23.06563568115234 2.002151489257812 25.55374908447266 2.99249267578125 27.89520454406738 C 3.949386596679688 30.15752410888672 5.319564819335938 32.18961334228516 7.064971923828125 33.93502426147461 C 8.810379028320312 35.6804313659668 10.84248352050781 37.05061340332031 13.10479736328125 38.00749969482422 C 15.44624328613281 38.99784088134766 17.93435668945312 39.5 20.5 39.5 L 148.5 39.5 C 151.0656433105469 39.5 153.5537567138672 38.99784088134766 155.8952026367188 38.00749969482422 C 158.1575164794922 37.05061340332031 160.1896057128906 35.6804313659668 161.9350280761719 33.93502426147461 C 163.6804351806641 32.18961334228516 165.0506134033203 30.15752410888672 166.0075073242188 27.89520454406738 C 166.9978332519531 25.55374908447266 167.5 23.06563568115234 167.5 20.5 C 167.5 17.93436431884766 166.9978332519531 15.44625091552734 166.0075073242188 13.10479545593262 C 165.0506134033203 10.84247779846191 163.6804351806641 8.810386657714844 161.9350280761719 7.064975738525391 C 160.1896057128906 5.319568634033203 158.1575164794922 3.949386596679688 155.8952026367188 2.992500305175781 C 153.5537567138672 2.002159118652344 151.0656433105469 1.5 148.5 1.5 L 20.5 1.5 M 20.5 0 L 148.5 0 C 159.8218383789062 0 169 9.178159713745117 169 20.5 C 169 31.82184219360352 159.8218383789062 41 148.5 41 L 20.5 41 C 9.17816162109375 41 0 31.82184219360352 0 20.5 C 0 9.178159713745117 9.17816162109375 0 20.5 0 Z"/></g><g transform="translate(-11)"><text class="c" transform="translate(143 421)"><tspan x="0" y="0">xStream</tspan></text><text class="d" transform="translate(230 421)"><tspan x="0" y="0">.LIVE</tspan></text></g></g></svg>